<svg width="24" height="24" viewBox="0 0 24 24" fill="none" xmlns="http://www.w3.org/2000/svg">
<path d="M8.07187 10.6312C7.3875 10.4952 6.75 11.0484 6.75 11.7468V14.1093C6.75 14.5874 7.08281 14.9718 7.53281 15.1405C8.38594 15.4593 9 16.2843 9 17.2499C9 18.4921 7.99219 19.4999 6.75 19.4999C5.50781 19.4999 4.5 18.4921 4.5 17.2499V5.62492C4.5 5.00148 3.99844 4.49992 3.375 4.49992H1.125C0.501562 4.49992 0 5.00148 0 5.62492V17.2499C0 21.4452 3.84844 24.7593 8.20312 23.8452C10.7531 23.3109 12.8109 21.2484 13.3453 18.703C14.1609 14.8171 11.6109 11.3343 8.07187 10.6312ZM9.79688 -8.46244e-05C9.36563 -0.0235221 9 0.318665 9 0.749915V2.23117C9 2.6296 9.30937 2.95773 9.70312 2.97648C15.7687 3.3046 20.6437 8.22648 20.9953 14.2968C21.0187 14.6905 21.3469 14.9999 21.7406 14.9999H23.2453C23.6766 14.9999 24.0187 14.6343 23.9953 14.203C23.5969 6.55304 17.4469 0.40304 9.79688 -8.46244e-05ZM9.81094 4.49992C9.375 4.4671 9 4.81398 9 5.2546V6.75929C9 7.15304 9.30469 7.47648 9.69375 7.5046C13.2938 7.79992 16.1625 10.7015 16.4859 14.3109C16.5234 14.6999 16.8422 14.9999 17.2313 14.9999H18.7406C19.1766 14.9999 19.5281 14.6249 19.4953 14.189C19.1016 9.02804 14.9719 4.89835 9.81094 4.49992Z" fill="#F2F2F2"/>
</svg>
