<svg width="28" height="28" viewBox="0 0 28 28" fill="none" xmlns="http://www.w3.org/2000/svg">
<path d="M27.0834 14.6339L24.3395 2.2467C24.2387 1.7938 23.9623 1.3994 23.571 1.15004C23.1797 0.900667 22.7055 0.816695 22.2523 0.91654L9.86524 3.66043C9.64085 3.71013 9.42845 3.80355 9.24016 3.93534C9.05188 4.06713 8.8914 4.23472 8.76788 4.42854C8.64437 4.62236 8.56024 4.8386 8.52031 5.06494C8.48037 5.29127 8.48541 5.52325 8.53513 5.74763L9.68472 10.9375H2.625C2.16103 10.938 1.71621 11.1225 1.38814 11.4506C1.06006 11.7787 0.875521 12.2235 0.875 12.6875V25.375C0.875521 25.8389 1.06006 26.2838 1.38814 26.6118C1.71621 26.9399 2.16103 27.1245 2.625 27.125H15.3125C15.7765 27.1245 16.2213 26.9399 16.5494 26.6118C16.8774 26.2838 17.062 25.8389 17.0625 25.375V18.6461L25.7533 16.7211C26.2062 16.6202 26.6006 16.3438 26.8499 15.9525C27.0993 15.5613 27.1833 15.087 27.0834 14.6339ZM15.3125 25.375H2.625V12.6875H10.0724L11.279 18.1347C11.3651 18.523 11.5809 18.8705 11.8908 19.1199C12.2008 19.3693 12.5863 19.5058 12.9841 19.5069C13.1126 19.5068 13.2407 19.4927 13.3661 19.4648L15.3129 19.0336L15.3136 25.375H15.3125ZM25.375 15.0124L12.9876 17.7562L10.2437 5.36898L22.631 2.62498L25.3759 15.012L25.375 15.0124Z" fill="#F2F2F2"/>
<path d="M4.375 14.4375H6.5625V16.625H4.375V14.4375Z" fill="#F2F2F2"/>
<path d="M4.375 21.4375H6.5625V23.625H4.375V21.4375Z" fill="#F2F2F2"/>
<path d="M11.375 21.4375H13.5625V23.625H11.375V21.4375Z" fill="#F2F2F2"/>
<path d="M7.875 17.9375H10.0625V20.125H7.875V17.9375Z" fill="#F2F2F2"/>
<path d="M12.3296 6.70294L14.4654 6.23022L14.9381 8.36604L12.8023 8.83876L12.3296 6.70294Z" fill="#F2F2F2"/>
<path d="M20.679 12.0197L22.8147 11.5466L23.2878 13.6824L21.152 14.1554L20.679 12.0197Z" fill="#F2F2F2"/>
<path d="M16.5049 9.35928L18.6406 8.88623L19.1136 11.0219L16.978 11.495L16.5049 9.35928Z" fill="#F2F2F2"/>
</svg>
