<svg width="27" height="21" viewBox="0 0 27 21" fill="none" xmlns="http://www.w3.org/2000/svg">
<path d="M26.9472 0H20.1138V12.27C19.6901 12.105 19.2255 12 18.7471 12C16.4784 12 14.6471 14.01 14.6471 16.5C14.6471 18.99 16.4784 21 18.7471 21C21.0158 21 22.8472 18.99 22.8472 16.5V3H26.9472V0ZM17.3804 0H0.980225V3H17.3804V0ZM17.3804 6H0.980225V9H17.3804V6ZM11.9137 12H0.980225V15H11.9137V12ZM17.3804 16.5C17.3804 15.675 17.9954 15 18.7471 15C19.4988 15 20.1138 15.675 20.1138 16.5C20.1138 17.325 19.4988 18 18.7471 18C17.9954 18 17.3804 17.325 17.3804 16.5Z" fill="#979292"/>
</svg>
