<svg width="28" height="24" viewBox="0 0 28 24" fill="none" xmlns="http://www.w3.org/2000/svg">
<path d="M15.4286 24C13.5714 24 11.8527 23.5402 10.2723 22.6205C8.69196 21.7009 7.44196 20.4509 6.52232 18.8705C5.60268 17.2902 5.14286 15.5714 5.14286 13.7143C5.14286 12.5714 5.42857 11.4777 6 10.433C6.57143 9.38839 7.39286 8.53125 8.46429 7.86161C9.53571 7.19196 10.7143 6.85714 12 6.85714C12.8929 6.85714 13.6875 7.26339 14.3839 8.07589C15.0804 8.88839 15.4286 9.91071 15.4286 11.1429C15.3929 11.0714 15.3393 10.9777 15.2679 10.8616C15.1964 10.7455 15.0491 10.5402 14.8259 10.2455C14.6027 9.95089 14.3661 9.69196 14.1161 9.46875C13.8661 9.24554 13.5491 9.04018 13.1652 8.85268C12.7812 8.66518 12.3929 8.57143 12 8.57143C11.0714 8.57143 10.2679 9.02232 9.58929 9.92411C8.91071 10.8259 8.57143 12.0893 8.57143 13.7143C8.57143 15.6071 9.24107 17.2232 10.5804 18.5625C11.9196 19.9018 13.5357 20.5714 15.4286 20.5714C16.9821 20.5714 18.4152 20.1875 19.7277 19.4196C21.0402 18.6518 22.0804 17.6116 22.8482 16.2991C23.6161 14.9866 24 13.5536 24 12C24 9.76786 23.6652 7.73214 22.9955 5.89286C22.3259 4.05357 21.5179 2.66071 20.5714 1.71429C23.0536 2.53571 24.817 3.77679 25.8616 5.4375C26.9062 7.09821 27.4286 9.28571 27.4286 12C27.4286 13.625 27.1116 15.1786 26.4777 16.6607C25.8438 18.1429 24.9911 19.4196 23.9196 20.4911C22.8482 21.5625 21.5714 22.4152 20.0893 23.0491C18.6071 23.683 17.0536 24 15.4286 24ZM15.4286 17.1429C14.5357 17.1429 13.7411 16.7366 13.0446 15.9241C12.3482 15.1116 12 14.0893 12 12.8571C12.0357 12.9286 12.0893 13.0223 12.1607 13.1384C12.2321 13.2545 12.3795 13.4598 12.6027 13.7545C12.8259 14.0491 13.0625 14.308 13.3125 14.5312C13.5625 14.7545 13.8795 14.9598 14.2634 15.1473C14.6473 15.3348 15.0357 15.4286 15.4286 15.4286C16.3571 15.4286 17.1607 14.9777 17.8393 14.0759C18.5179 13.1741 18.8571 11.9107 18.8571 10.2857C18.8571 8.39286 18.1875 6.77679 16.8482 5.4375C15.5089 4.09821 13.8929 3.42857 12 3.42857C10.4464 3.42857 9.01339 3.8125 7.70089 4.58036C6.38839 5.34821 5.34821 6.38839 4.58036 7.70089C3.8125 9.01339 3.42857 10.4464 3.42857 12C3.42857 14.2321 3.76339 16.2679 4.43304 18.1071C5.10268 19.9464 5.91071 21.3393 6.85714 22.2857C4.375 21.4643 2.61161 20.2232 1.56696 18.5625C0.522321 16.9018 0 14.7143 0 12C0 10.375 0.316964 8.82143 0.950893 7.33929C1.58482 5.85714 2.4375 4.58036 3.50893 3.50893C4.58036 2.4375 5.85714 1.58482 7.33929 0.950893C8.82143 0.316964 10.375 0 12 0C13.8571 0 15.5759 0.459821 17.1562 1.37946C18.7366 2.29911 19.9866 3.54911 20.9062 5.12946C21.8259 6.70982 22.2857 8.42857 22.2857 10.2857C22.2857 11.4286 22 12.5223 21.4286 13.567C20.8571 14.6116 20.0357 15.4688 18.9643 16.1384C17.8929 16.808 16.7143 17.1429 15.4286 17.1429Z" fill="#F2F2F2"/>
</svg>
