<svg width="28" height="28" viewBox="0 0 28 28" fill="none" xmlns="http://www.w3.org/2000/svg">
<path d="M3.73337 1.8667C3.73337 1.8667 1.8667 1.8667 1.8667 3.73337V13.3616C1.8667 16.591 2.5275 20.5334 8.40003 20.5334H9.33337V14.9334L4.6667 16.8C4.6667 16.8 4.6667 12.1334 9.33337 12.1334V9.33337C9.33337 8.01177 9.49577 6.86937 10.2667 6.02003C10.9779 5.23603 12.1427 3.67177 15.2246 5.14083L16.8 6.16563V3.73337C16.8 3.73337 16.8 1.8667 14.9334 1.8667C13.6118 1.8667 11.2411 3.73337 9.33337 3.73337C7.42563 3.73337 5.20243 1.8667 3.73337 1.8667ZM5.60003 5.60003C6.0951 5.60003 6.5699 5.7967 6.91997 6.14677C7.27003 6.49683 7.4667 6.97163 7.4667 7.4667C7.4667 7.96177 7.27003 8.43656 6.91997 8.78663C6.5699 9.1367 6.0951 9.33337 5.60003 9.33337C5.10496 9.33337 4.63017 9.1367 4.2801 8.78663C3.93003 8.43656 3.73337 7.96177 3.73337 7.4667C3.73337 6.97163 3.93003 6.49683 4.2801 6.14677C4.63017 5.7967 5.10496 5.60003 5.60003 5.60003ZM13.0667 7.4667C13.0667 7.4667 11.2 7.4667 11.2 9.33337V18.6667C11.2 22.4 13.0667 26.1334 18.6667 26.1334C24.2667 26.1334 26.1334 22.4 26.1334 18.6667V9.33337C26.1334 7.4667 24.2667 7.4667 24.2667 7.4667C22.9451 7.4667 20.5744 9.33337 18.6667 9.33337C16.759 9.33337 14.5358 7.4667 13.0667 7.4667ZM14.9334 11.2C15.4284 11.2 15.9032 11.3967 16.2533 11.7468C16.6034 12.0968 16.8 12.5716 16.8 13.0667C16.8 13.5618 16.6034 14.0366 16.2533 14.3866C15.9032 14.7367 15.4284 14.9334 14.9334 14.9334C14.4383 14.9334 13.9635 14.7367 13.6134 14.3866C13.2634 14.0366 13.0667 13.5618 13.0667 13.0667C13.0667 12.5716 13.2634 12.0968 13.6134 11.7468C13.9635 11.3967 14.4383 11.2 14.9334 11.2ZM22.4 11.2C22.8951 11.2 23.3699 11.3967 23.72 11.7468C24.07 12.0968 24.2667 12.5716 24.2667 13.0667C24.2667 13.5618 24.07 14.0366 23.72 14.3866C23.3699 14.7367 22.8951 14.9334 22.4 14.9334C21.905 14.9334 21.4302 14.7367 21.0801 14.3866C20.73 14.0366 20.5334 13.5618 20.5334 13.0667C20.5334 12.5716 20.73 12.0968 21.0801 11.7468C21.4302 11.3967 21.905 11.2 22.4 11.2ZM14 18.6667H23.3334C23.3334 18.6667 23.3334 23.3334 18.6667 23.3334C14 23.3334 14 18.6667 14 18.6667Z" fill="#979292"/>
</svg>
