<?xml version="1.0" encoding="UTF-8"?>
<svg xmlns="http://www.w3.org/2000/svg" xmlns:xlink="http://www.w3.org/1999/xlink" width="214px" height="50px" viewBox="0 0 214 50" version="1.1">
<g id="surface1">
<path style=" stroke:none;fill-rule:nonzero;fill:rgb(90.980392%,64.705882%,38.431373%);fill-opacity:1;" d="M 12.207031 9.910156 C 10.851562 9.910156 9.742188 11.019531 9.742188 12.382812 L 9.742188 39.332031 C 9.742188 40.699219 10.851562 41.808594 12.207031 41.808594 L 66.792969 41.808594 L 66.792969 9.910156 Z M 12.207031 9.910156 "/>
<path style=" stroke:none;fill-rule:nonzero;fill:rgb(100%,100%,100%);fill-opacity:1;" d="M 19.203125 16.589844 L 15.597656 16.589844 L 15.597656 35.125 L 26.496094 35.125 L 26.496094 31.859375 L 19.203125 31.859375 Z M 19.203125 16.589844 "/>
<path style=" stroke:none;fill-rule:nonzero;fill:rgb(100%,100%,100%);fill-opacity:1;" d="M 27.988281 16.589844 L 31.59375 16.589844 L 31.59375 35.125 L 27.988281 35.125 Z M 27.988281 16.589844 "/>
<path style=" stroke:none;fill-rule:nonzero;fill:rgb(100%,100%,100%);fill-opacity:1;" d="M 42.242188 25.53125 C 41.824219 26.757812 41.371094 28.121094 40.953125 29.484375 C 40.582031 28.15625 40.164062 26.808594 39.746094 25.511719 L 36.925781 16.589844 L 33.070312 16.589844 L 39.089844 35.125 L 42.527344 35.125 L 49.136719 16.589844 L 45.277344 16.589844 Z M 42.242188 25.53125 "/>
<path style=" stroke:none;fill-rule:nonzero;fill:rgb(100%,100%,100%);fill-opacity:1;" d="M 54.050781 31.859375 L 54.050781 27.097656 L 60.691406 27.097656 L 60.691406 23.847656 L 54.050781 23.847656 L 54.050781 19.855469 L 61.058594 19.855469 L 61.058594 16.589844 L 50.445312 16.589844 L 50.445312 35.125 L 61.445312 35.125 L 61.445312 31.859375 Z M 54.050781 31.859375 "/>
<path style=" stroke:none;fill-rule:nonzero;fill:rgb(20.392157%,20.392157%,20.392157%);fill-opacity:1;" d="M 204.257812 9.960938 L 66.8125 9.960938 L 66.8125 41.859375 L 204.257812 41.859375 C 205.613281 41.859375 206.722656 40.746094 206.722656 39.382812 L 206.722656 12.433594 C 206.722656 11.070312 205.613281 9.960938 204.257812 9.960938 Z M 204.257812 9.960938 "/>
<path style=" stroke:none;fill-rule:nonzero;fill:rgb(100%,100%,100%);fill-opacity:1;" d="M 79.101562 24.605469 C 76.871094 23.710938 76.152344 23.039062 76.152344 21.808594 C 76.152344 20.867188 76.839844 19.757812 78.785156 19.757812 C 80.074219 19.757812 81.066406 20.160156 81.667969 20.496094 L 82.121094 20.75 L 82.976562 18.15625 L 82.675781 17.972656 C 82.121094 17.652344 80.882812 17.097656 78.867188 17.097656 C 75.53125 17.097656 73.183594 19.132812 73.183594 22.046875 C 73.183594 24.402344 74.644531 26.035156 77.746094 27.164062 C 80.074219 28.089844 80.527344 28.914062 80.527344 30.058594 C 80.527344 31.539062 79.386719 32.464844 77.558594 32.464844 C 76.371094 32.464844 75.046875 32.078125 74.023438 31.4375 L 73.550781 31.136719 L 72.765625 33.796875 L 73.03125 33.980469 C 74.003906 34.652344 75.816406 35.109375 77.410156 35.109375 C 81.921875 35.109375 83.515625 32.296875 83.515625 29.890625 C 83.515625 27.414062 82.207031 25.832031 79.101562 24.605469 Z M 79.101562 24.605469 "/>
<path style=" stroke:none;fill-rule:nonzero;fill:rgb(100%,100%,100%);fill-opacity:1;" d="M 84.890625 20.058594 L 89.820312 20.058594 L 89.820312 34.871094 L 92.789062 34.871094 L 92.789062 20.058594 L 97.75 20.058594 L 97.75 17.367188 L 84.890625 17.367188 Z M 84.890625 20.058594 "/>
<path style=" stroke:none;fill-rule:nonzero;fill:rgb(100%,100%,100%);fill-opacity:1;" d="M 110.078125 29.773438 C 109.726562 28.222656 109.105469 27.128906 108.214844 26.507812 C 109.824219 25.648438 110.765625 24.082031 110.765625 22.195312 C 110.765625 20.78125 110.261719 19.539062 109.355469 18.710938 C 108.265625 17.703125 106.722656 17.25 104.375 17.25 C 102.867188 17.25 101.324219 17.382812 100.265625 17.601562 L 99.929688 17.667969 L 99.929688 34.871094 L 102.882812 34.871094 L 102.882812 27.667969 L 104.410156 27.667969 C 106.101562 27.734375 106.824219 28.460938 107.261719 30.5625 C 107.796875 33.003906 108.132812 34.199219 108.382812 34.652344 L 108.5 34.871094 L 111.636719 34.871094 L 111.300781 34.234375 C 110.964844 33.628906 110.5625 31.925781 110.078125 29.773438 Z M 107.8125 22.449219 C 107.8125 24.132812 106.574219 25.175781 104.578125 25.175781 L 102.867188 25.175781 L 102.867188 19.890625 C 103.21875 19.824219 103.789062 19.773438 104.507812 19.773438 C 106.691406 19.789062 107.8125 20.699219 107.8125 22.449219 Z M 107.8125 22.449219 "/>
<path style=" stroke:none;fill-rule:nonzero;fill:rgb(100%,100%,100%);fill-opacity:1;" d="M 117.019531 27.078125 L 123.324219 27.078125 L 123.324219 24.417969 L 117.019531 24.417969 L 117.019531 20.042969 L 123.695312 20.042969 L 123.695312 17.367188 L 114.070312 17.367188 L 114.070312 34.871094 L 124.046875 34.871094 L 124.046875 32.195312 L 117.019531 32.195312 Z M 117.019531 27.078125 "/>
<path style=" stroke:none;fill-rule:nonzero;fill:rgb(100%,100%,100%);fill-opacity:1;" d="M 131.527344 17.367188 L 125.722656 34.871094 L 128.792969 34.871094 L 130.484375 29.636719 L 135.632812 29.636719 L 137.363281 34.871094 L 140.496094 34.871094 L 134.660156 17.367188 Z M 134.898438 27.097656 L 131.191406 27.097656 L 132.597656 22.855469 C 132.75 22.382812 132.882812 21.878906 133.035156 21.339844 C 133.167969 21.84375 133.320312 22.347656 133.503906 22.886719 Z M 134.898438 27.097656 "/>
<path style=" stroke:none;fill-rule:nonzero;fill:rgb(100%,100%,100%);fill-opacity:1;" d="M 155.558594 17.367188 L 152.554688 25.699219 C 151.984375 27.347656 151.550781 28.710938 151.214844 29.890625 C 150.894531 28.695312 150.476562 27.347656 149.9375 25.699219 L 147.070312 17.367188 L 143.699219 17.367188 L 142.511719 34.871094 L 145.359375 34.871094 L 145.8125 27.332031 C 145.898438 25.800781 145.980469 24.21875 146.03125 22.734375 C 146.351562 23.847656 146.734375 25.109375 147.222656 26.558594 L 149.9375 34.773438 L 152.136719 34.773438 L 155.105469 26.40625 C 155.605469 25.007812 156.042969 23.710938 156.429688 22.484375 C 156.480469 24.03125 156.5625 25.699219 156.628906 27.144531 L 157.066406 34.871094 L 159.984375 34.871094 L 158.929688 17.367188 Z M 155.558594 17.367188 "/>
<path style=" stroke:none;fill-rule:nonzero;fill:rgb(100%,100%,100%);fill-opacity:1;" d="M 163.539062 17.367188 L 166.492188 17.367188 L 166.492188 34.871094 L 163.539062 34.871094 Z M 163.539062 17.367188 "/>
<path style=" stroke:none;fill-rule:nonzero;fill:rgb(100%,100%,100%);fill-opacity:1;" d="M 180.710938 24.773438 C 180.710938 26.472656 180.730469 28.023438 180.8125 29.570312 C 180.226562 28.410156 179.539062 27.230469 178.785156 25.984375 L 173.449219 17.367188 L 170.5 17.367188 L 170.5 34.871094 L 173.332031 34.871094 L 173.332031 27.332031 C 173.332031 25.378906 173.316406 23.8125 173.25 22.332031 C 173.851562 23.492188 174.574219 24.757812 175.480469 26.238281 L 180.761719 34.890625 L 183.546875 34.890625 L 183.546875 17.382812 L 180.710938 17.382812 Z M 180.710938 24.773438 "/>
<path style=" stroke:none;fill-rule:nonzero;fill:rgb(100%,100%,100%);fill-opacity:1;" d="M 194.5625 25.261719 L 194.5625 27.871094 L 197.867188 27.871094 L 197.867188 32.09375 C 197.515625 32.214844 196.777344 32.398438 195.503906 32.398438 C 191.898438 32.398438 189.667969 29.992188 189.667969 26.121094 C 189.667969 22.265625 191.996094 19.875 195.769531 19.875 C 197.480469 19.875 198.488281 20.246094 199.191406 20.546875 L 199.628906 20.75 L 200.382812 18.15625 L 200.0625 17.988281 C 199.277344 17.601562 197.75 17.179688 195.839844 17.179688 C 190.355469 17.179688 186.648438 20.800781 186.613281 26.203125 C 186.613281 28.828125 187.488281 31.203125 189.011719 32.71875 C 190.605469 34.285156 192.683594 35.042969 195.367188 35.042969 C 197.5 35.042969 199.328125 34.535156 200.5 34.097656 L 200.785156 33.996094 L 200.785156 25.261719 Z M 194.5625 25.261719 "/>
</g>
</svg>
